<?xml version="1.0" ?><svg width="35px" height="35px" enable-background="new 0 0 512 512" id="Layer_1" version="1.1" viewBox="0 0 512 512" xml:space="preserve" xmlns="http://www.w3.org/2000/svg" xmlns:xlink="http://www.w3.org/1999/xlink"><g><g><g><path d="M190.1,75.3c0.4-31.5,25.5-58.1,57.3-58.9c8.1-0.2,16.7-0.7,24.7,0.7c12.8,2.1,24.5,8.2,33.4,17.6     c10.6,11,16.1,25.5,16.3,40.7c0.1,9.6,15.1,9.7,15,0c-0.4-32.8-22.2-62.4-54.1-71.2c-11-3.1-22.3-2.8-33.6-2.7     c-18.3,0.2-35.9,6.8-49.6,19c-15.6,13.9-24.2,34.1-24.5,54.9C175,85,190,85,190.1,75.3L190.1,75.3z"/><path d="M220.1,67.6c2.3-8,7.5-14.7,14.8-18.7c5.9-3.2,12.1-3.5,18.6-3.5c6.1,0,12.4-0.4,18.3,1.4c9.9,3,17.1,11.1,20,20.9     c2.7,9.2,17.2,5.3,14.5-4c-3.8-12.9-12.7-23.8-25.1-29.2c-9-4-18.1-4-27.7-4c-9.4,0-18.4,1.1-26.8,5.9     c-10.4,5.9-17.8,15.9-21.1,27.3C203,72.9,217.4,76.8,220.1,67.6L220.1,67.6z"/></g></g><g><g><path d="M140.2,495.6c-28.2,0-56.4,0-84.6,0c-5.6,0-11.2,0-16.7,0c2.5,2.5,5,5,7.5,7.5c0-23.5,0-47.1,0-70.6c0-11.5,0-23,0-34.6     c0-15.2,7.2-29.3,21.7-35.4c7.3-3.1,14.9-2.7,22.7-2.7c6.8,0,13.7,0,20.5,0c9.7,0,9.7-15,0-15c-13.1,0-27.3-1.5-40.2,1.2     c-23.1,4.8-39.5,26.1-39.8,49.4c-0.3,25.4,0,50.8,0,76.2c0,10.5,0,21,0,31.5c0,4.1,3.4,7.5,7.5,7.5c25.4,0,50.8,0,76.2,0     c8.4,0,16.8,0,25.1,0C149.8,510.6,149.8,495.6,140.2,495.6L140.2,495.6z"/></g></g><g><g><path d="M371.8,510.6c28.2,0,56.4,0,84.6,0c5.6,0,11.2,0,16.7,0c4.1,0,7.5-3.4,7.5-7.5c0-24.9,0-49.9,0-74.8     c0-10.7,0.1-21.4,0-32.2c-0.1-20.8-12.2-39.6-31.5-47.5c-14.8-6.1-32.7-3.8-48.4-3.8c-9.7,0-9.7,15,0,15c5.9,0,11.8,0,17.6,0     c5.8,0,12.1-0.6,17.9,0.5c17.5,3.2,29.3,18.5,29.4,36c0.1,26,0,52,0,78c0,9.6,0,19.2,0,28.8c2.5-2.5,5-5,7.5-7.5     c-25.4,0-50.8,0-76.2,0c-8.4,0-16.8,0-25.1,0C362.2,495.6,362.2,510.6,371.8,510.6L371.8,510.6z"/></g></g><g><g><path d="M393.3,259.4c0,31,0,62,0,93c0,35.8,0,71.5,0,107.3c0,14.5,0,29,0,43.4c2.5-2.5,5-5,7.5-7.5c-32.9,0-65.8,0-98.8,0     c-45.7,0-91.5,0-137.2,0c-17.9,0-35.7,0-53.6,0c2.5,2.5,5,5,7.5,7.5c0-34.7,0-69.4,0-104.1c0-27.6,0-55.2,0-82.8     c0-18.9,0-37.9,0-56.8c0-9.7-15-9.7-15,0c0,31,0,62,0,93c0,35.8,0,71.5,0,107.3c0,14.5,0,29,0,43.4c0,4.1,3.4,7.5,7.5,7.5     c32.9,0,65.8,0,98.8,0c45.7,0,91.5,0,137.2,0c17.9,0,35.7,0,53.6,0c4.1,0,7.5-3.4,7.5-7.5c0-34.7,0-69.4,0-104.1     c0-27.6,0-55.2,0-82.8c0-18.9,0-37.9,0-56.8C408.3,249.7,393.3,249.7,393.3,259.4L393.3,259.4z"/></g></g><g><g><path d="M182.6,266.9c36.8,0,73.7,0,110.5,0c12.1,0,24.1,0,36.2,0c9.7,0,9.7-15,0-15c-36.8,0-73.7,0-110.5,0     c-12.1,0-24.1,0-36.2,0C173,251.9,173,266.9,182.6,266.9L182.6,266.9z"/></g></g><g><g><path d="M358.3,266.9c13.5,0,26.9,0,40.4,0c21.1,0,38.2-15.3,38.5-36.8c0.4-27.5,0-55,0-82.5c0-14.9,0-29.7,0-44.6     c0-2.8,0.1-5.6,0-8.3c-0.2-12.1-5.8-23-15.7-30c-7.4-5.2-15.9-6.5-24.7-6.5c-8.4,0-16.7,0-25.1,0c-12.2,0-24.5,0-36.7,0     c-21.9,0-43.9,0-65.8,0c-26.8,0-53.5,0-80.3,0c-24.7,0-49.4,0-74.1,0c-9.3,0-18.1,1.7-25.7,7.5C80,72.6,75,83.2,74.8,94.7     c-0.2,9.3,0,18.5,0,27.8c0,32.8,0,65.6,0,98.4c0,3.1-0.1,6.2,0,9.2c0.2,10.9,4.6,21.3,13.1,28.2c13.8,11.3,32.9,8.5,49.5,8.5     c5.4,0,10.9,0,16.3,0c9.7,0,9.7-15,0-15c-13,0-26.1,0-39.1,0c-7.4,0-14.2-1.4-19.4-7.2c-4-4.5-5.4-10.1-5.4-15.9     c-0.1-28,0-56,0-84c0-13.9,0-27.8,0-41.7c0-2.8,0-5.5,0-8.3c0.2-9,5.4-17.3,14-20.4c5.6-2,12.2-1.3,18.1-1.3c8.2,0,16.5,0,24.7,0     c11.2,0,22.5,0,33.7,0c20.9,0,41.9,0,62.8,0c25.5,0,50.9,0,76.4,0c23.8,0,47.5,0,71.3,0c5.7,0,12.2-0.7,17.6,1.4     c8.4,3.3,13.6,11.4,13.7,20.3c0.2,8.8,0,17.7,0,26.5c0,32,0,63.9,0,95.9c0,9.9,1.4,20.8-6.3,28.5c-5.3,5.3-11.8,6.3-18.8,6.3     c-7.8,0-15.7,0-23.5,0c-5.1,0-10.2,0-15.3,0C348.7,251.9,348.7,266.9,358.3,266.9L358.3,266.9z"/></g></g><g><g><path d="M341.6,399.1c0,30.3,0,60.7,0,91c0,4.3,0,8.7,0,13c2.5-2.5,5-5,7.5-7.5c-20.9,0-41.8,0-62.7,0c-33.5,0-67,0-100.6,0     c-7.7,0-15.3,0-23,0c2.5,2.5,5,5,7.5,7.5c0-34.5-0.3-69,0-103.5c0.1-13.8,6.4-26.6,17.4-35c9.5-7.3,20.8-10.1,32.6-10.1     c20.9,0,41.8,0,62.7,0c10.2,0,20.1-0.3,29.8,3.6C329.8,364.9,341.4,380.9,341.6,399.1c0.1,9.6,15.1,9.7,15,0     c-0.3-18.8-9.3-35.9-24.3-47.1c-11.7-8.7-25.7-12.5-40.1-12.5c-21.9,0-43.8,0-65.7,0c-10.6,0-21,0.2-31,4     c-17.2,6.5-30.9,19.8-37,37.3c-3,8.5-3,17.2-3,26c0,10.8,0,21.6,0,32.4c0,21.3,0,42.6,0,63.9c0,4.1,3.4,7.5,7.5,7.5     c20.9,0,41.8,0,62.7,0c33.5,0,67,0,100.6,0c7.7,0,15.3,0,23,0c4.1,0,7.5-3.4,7.5-7.5c0-30.3,0-60.7,0-91c0-4.3,0-8.7,0-13     C356.6,389.5,341.6,389.5,341.6,399.1z"/></g></g><g><g><path d="M153.7,73.1c9.7,0,19.3,0,29,0c-2.5-2.5-5-5-7.5-7.5c0,26,0,52.1,0,78.1c0,39.7,0,79.5,0,119.2c0,5.3,0,10.6,0,15.9     c0,2.7,0.5,6.1-0.9,8.5c-2.8,5-10.3,4.7-12.6-0.6c-0.6-1.3-0.5-2.5-0.5-3.8c-0.1-3.6,0-7.2,0-10.8c0-37.4,0-74.8,0-112.2     c0-30.9,0.6-61.8,0-92.7c0-0.5,0-1.1,0-1.6c0-9.7-15-9.7-15,0c0,27.7,0,55.3,0,83c0,40,0,79.9,0,119.9c0,12.3-1.9,26.7,10.5,34.3     c14.8,9,32.8-2.1,33.4-18.8c0.1-2.5,0-5.1,0-7.7c0-37.2,0-74.3,0-111.5c0-32.5,0.7-65.1,0-97.5c0-0.6,0-1.1,0-1.7     c0-4.1-3.4-7.5-7.5-7.5c-9.7,0-19.3,0-29,0C144,58.1,144,73.1,153.7,73.1z"/></g></g><g><g><path d="M329.4,73.1c9.7,0,19.3,0,29,0c-2.5-2.5-5-5-7.5-7.5c0,26,0,52.1,0,78.1c0,39.7,0,79.5,0,119.2c0,5.3,0,10.6,0,15.9     c0,2.7,0.5,6.1-0.9,8.5c-2.8,5-10.3,4.7-12.6-0.6c-0.6-1.3-0.5-2.5-0.5-3.8c-0.1-3.6,0-7.2,0-10.8c0-37.4,0-74.8,0-112.2     c0-30.9,0.6-61.8,0-92.7c0-0.5,0-1.1,0-1.6c0-9.7-15-9.7-15,0c0,27.7,0,55.3,0,83c0,40,0,79.9,0,119.9c0,12.3-1.9,26.7,10.5,34.3     c14.8,9,32.8-2.1,33.4-18.8c0.1-2.5,0-5.1,0-7.7c0-37.2,0-74.3,0-111.5c0-32.5,0.7-65.1,0-97.5c0-0.6,0-1.1,0-1.7     c0-4.1-3.4-7.5-7.5-7.5c-9.7,0-19.3,0-29,0C319.7,58.1,319.7,73.1,329.4,73.1z"/></g></g><g><g><path d="M279.2,259.4c0,6.3,0.9,13.3-0.8,19.4c-2.7,9.9-12,17-22.3,17c-10,0-19.3-6.7-22.2-16.4c-1.9-6.3-1-13.5-1-20.1     c0-9.7-15-9.7-15,0c0,9.9-0.7,19.7,3.4,29c6,13.5,20,22.5,34.8,22.4c14.5,0,28.3-8.7,34.4-21.9c4.4-9.4,3.7-19.5,3.7-29.6     C294.2,249.7,279.2,249.7,279.2,259.4L279.2,259.4z"/></g></g><g><g><path d="M162.9,421.1c20.9,0,41.8,0,62.8,0c33.5,0,67.1,0,100.6,0c7.7,0,15.4,0,23,0c-2.5-2.5-5-5-7.5-7.5c0,9.7,0,19.3,0,29     c2.5-2.5,5-5,7.5-7.5c-20.9,0-41.8,0-62.8,0c-33.5,0-67.1,0-100.6,0c-7.7,0-15.4,0-23,0c2.5,2.5,5,5,7.5,7.5c0-9.7,0-19.3,0-29     c0-9.7-15-9.7-15,0c0,9.7,0,19.3,0,29c0,4.1,3.4,7.5,7.5,7.5c20.9,0,41.8,0,62.8,0c33.5,0,67.1,0,100.6,0c7.7,0,15.4,0,23,0     c4.1,0,7.5-3.4,7.5-7.5c0-9.7,0-19.3,0-29c0-4.1-3.4-7.5-7.5-7.5c-20.9,0-41.8,0-62.8,0c-33.5,0-67.1,0-100.6,0     c-7.7,0-15.4,0-23,0C153.2,406.1,153.2,421.1,162.9,421.1z"/></g></g></g></svg>